# xmcd
#
# Track frame offsets:
#	150
#	16650
#	31597
#	45174
#	62798
#	77107
#	91850
#	104856
#	119257
#	139029
#	160699
#	175297
#	192576
#	210014
#
# Disc length: 2945 seconds
#
# Revision: 1
# Processed by: cddbd v1.4PL0 Copyright (c) Steve Scherf et al.
# Submitted via: audiograbber 1.81.03
#
DISCID=a80b7f0e
DTITLE=Steve Guyger - Past Life Blues
DYEAR=1999
DGENRE=Blues
TTITLE0=I Thought I Heard
TTITLE1=Lets Rock Tonight
TTITLE2=Blue Mambo
TTITLE3=Somethin's Smellin' Good
TTITLE4=I Tried So Hard
TTITLE5=We're Gonna Ride
TTITLE6=My New Car
TTITLE7=Snake Oil
TTITLE8=Rib Shack Boogie
TTITLE9=Bricks In My Pillow
TTITLE10=Same Old Thing
TTITLE11=No No No
TTITLE12=Monkey On A Limb
TTITLE13=The Comeback
EXTD=
EXTT0=
EXTT1=
EXTT2=
EXTT3=
EXTT4=
EXTT5=
EXTT6=
EXTT7=
EXTT8=
EXTT9=
EXTT10=
EXTT11=
EXTT12=
EXTT13=
PLAYORDER=
